<?xml version="1.0" encoding="utf-8"?>
<!-- Generator: Adobe Illustrator 25.4.1, SVG Export Plug-In . SVG Version: 6.00 Build 0)  -->
<svg version="1.1" id="Layer_1" xmlns="http://www.w3.org/2000/svg" xmlns:xlink="http://www.w3.org/1999/xlink" x="0px" y="0px"
	 viewBox="0 0 595.3 595.3" style="enable-background:new 0 0 595.3 595.3;" xml:space="preserve">
<style type="text/css">
	.st0{fill:#79D73A;}
</style>
<path class="st0" d="M277.1,502.1c-6.8-1.1-13.1-1.9-19.3-3.1c-21-3.9-40.8-11-59.5-21.3c-2.2-1.2-3.8-1.3-6.1-0.1
	c-6.3,3.2-11.5,7.4-15.5,13.3c-2.8,4-6.2,7.6-9.2,11.5c-2,2.5-4,5.2-5.2,8.1c-0.8,1.8,0,4.3-0.1,6.5c-0.2,3.3-0.1,6.8-0.8,10
	c-1.8,8.5-8,12.5-17.1,10.6c-6.9-1.4-13.4-4-18.6-9.2c-4.4-4.4-8-9-10.1-14.9c-4-11.1,4.4-20.9,14.3-20.7c3.7,0.1,6.6-0.8,9.6-3
	c4.9-3.6,9.2-7.8,13-12.6c3.2-4,6.9-7.4,10-11.4c1.7-2.2,2.7-5.1,3.8-7.7c0.3-0.7-0.3-2.1-0.9-2.7c-14-11.8-26.3-25.2-36.6-40.2
	c-0.8-1.2-1.7-1.6-3.1-1.3c-6,1.2-11.6,3.3-16.3,7.5c-2.7,2.5-5.6,4.8-8.3,7.2c-0.6,0.6-0.9,1.6-1.2,2.4c-0.9,2.4-1.7,4.9-2.7,7.3
	c-1.1,2.7-3.5,3.7-6.2,4.1c-7.3,1.2-12.9-1.8-17.9-6.8c-5.2-5.3-6-11.9-5-18.8c0.8-5.4,4.5-8.4,9.6-9.6c1.5-0.4,3.1-0.7,4.6-0.5
	c5.8,0.5,10.6-1.8,15.3-4.8c3.5-2.2,7.2-4.4,10.5-6.9c1.9-1.4,3.3-3.4,4.7-5.3c0.3-0.5,0.1-1.6-0.2-2.3
	c-7.4-15.5-12.6-31.7-15.8-48.6c-0.1-0.4-0.2-0.8-0.2-1.1c0.2-5.1-3.1-7.3-7.3-8.8c-7.5-2.6-15.2-2.8-23-2.2
	c-5.6,0.4-11.1,1.4-16.6,2c-1.8,0.2-2.7,1-3.5,2.6c-1.6,3.5-4.1,6.3-7.3,8.4c-7.6,5.3-16,5.1-23.5-0.4c-1-0.7-2.1-1.4-3.1-2
	c-5.5-3.3-7.7-9-9.5-14.5c-3.6-11.3-2.6-22.4,2.9-33c1.4-2.7,2.7-5.7,4.7-7.8c4.6-4.7,10.1-8,17-6.6c2.4,0.5,4.8,1.7,6.8,3.1
	c2.8,2.1,5.4,4.6,7.9,7c2,1.9,3.8,3.6,7.1,3.4c3.3-0.2,6.7,0.7,10.1,0.8c8,0.2,16.1,0.3,24.1,0.3c1.6,0,3.3-0.7,4.9-1.2
	c3.6-1.2,5.6-3.3,6-7.6c1.9-20.4,7-40,15.3-58.7c1.2-2.6,1.1-4.5-0.5-6.9c-4.7-6.9-10.3-12.3-18.6-14.6c-3.2-0.9-6.2-2.2-9.4-3.1
	c-1-0.3-2.1,0-3.1,0.2c-2.5,0.4-5,1-7.6,1.5c-2.4,0.4-4.4-0.8-5.9-2.5c-1.3-1.4-2.5-3-3.3-4.7c-3.3-6.9-1.7-18.3,4-23.3
	c2.4-2.1,5.2-4.1,8.2-5.4c5.5-2.4,10.6-1,14.5,3.6c0.9,1,1.9,2.1,2.5,3.3c2.5,5.2,6.9,8,11.8,10.5c3.7,1.9,7.5,3.8,11.3,5.4
	c1.9,0.8,4.2,0.8,6.3,1.3c1.8,0.4,3.7,0.9,5.4,1.6c1.8,0.7,2.7-0.2,3.6-1.4c4-5.3,8-10.7,12.2-15.9c9-10.8,19.1-20.4,30.2-28.9
	c1.5-1.1,2-2.3,1.9-4.2c-0.1-7.5-2.4-14.3-6.2-20.7c-2.7-4.6-4.9-9.4-7.6-14c-1.5-2.6-3.3-5-5.1-7.3c-0.5-0.7-1.6-1.1-2.5-1.4
	c-6-1.8-11.8-4-16-9c-3.5-4.3-3.8-9.2-1.3-14.2c2.6-5.2,6.5-9.5,11-12.8c7.4-5.3,15.9-8.1,25.2-7c11.4,1.2,16.1,13.6,11.9,21.5
	c-1.3,2.6-1.6,5.2-0.9,8c1.5,6.3,3.7,12.3,7,17.9c2.5,4.3,4.3,9,6.6,13.4c1.6,3.2,3.9,5.8,7.1,7.7c1.3,0.8,2.3,1,3.8,0.3
	c16.1-8,33-13.7,50.6-17.2c4.2-0.8,8.5-1.5,12.7-2c2.3-0.3,4-1.2,5.5-2.9c4.2-4.7,6.7-10,6.4-16.5c-0.3-6.6-0.2-13.2-0.7-19.8
	c-0.3-3.8-1.8-7.1-4.7-9.9c-5.2-5.1-6.5-11.8-7-18.7c-0.1-1.4,0-2.9,0-4.4c-0.1-3.6,1.2-6.6,3.5-9.2c3.1-3.5,7.1-5.8,11.6-7
	c3.8-1,7.6-2.3,11.6-2.9c9.3-1.6,17.7,0.8,25.2,6.2c1.4,1,2.6,2.7,3.3,4.3c3,6.7,3.4,13.8,2.8,21c-0.4,4.9-3.2,8.9-6.7,12.3
	c-3.6,3.5-5,7.8-5.4,12.6c-0.6,9,0.4,17.8,2.4,26.5c0.7,2.8,2.9,5.3,4.6,7.9c0.3,0.4,1.1,0.5,1.7,0.5c18.8,2.4,36.9,7.5,54.3,15
	c1.6,0.7,3,0.8,4.3-0.2c5.6-4,11.3-7.8,14.5-14.4c3-6.1,6.5-12,9.7-18c0.4-0.7,0.7-1.4,1.1-2c2.4-4.2,1.9-8.4,0.7-12.9
	c-1.6-5.8-1.9-11.9,1.7-17.3c2.1-3.2,5.2-5,9-5.3c13.1-1,24,3.6,32.6,13.5c1.4,1.6,2.7,3.4,3.7,5.3c5.7,10.5-1.5,21-10.7,22.4
	c-3.4,0.5-6,1.8-8.3,4.3c-4.2,4.5-7.8,9.4-10.7,14.9c-2.3,4.4-5.2,8.5-7.8,12.8c-2.6,4.2-3,8.8-2.3,13.5c0.4,3.2,1.9,5.9,4.6,7.9
	c16.3,12.2,30.4,26.6,42.2,43.1c1.2,1.6,2.4,2.3,4.4,2.2c6.4-0.2,12.5-1.3,17.6-5.5c1.4-1.1,3-1.9,4.4-3c1.9-1.4,3.3-2.8,3.9-5.4
	c1.4-6.1,6.6-9,12.7-7.1c6.9,2.2,13.3,9.1,12.7,16.5c-0.1,1.3,0.1,2.6-0.1,3.9c-1.3,6.7-5.4,9.7-13.2,9.1c-3.2-0.2-6.1,0.2-8.9,1.4
	c-6.2,2.8-12.5,5.5-17,10.9c-0.8,1-1.1,1.7-0.4,3c9.8,19.1,16.3,39.3,19.6,60.6c0.1,0.7,0.8,1.5,1.4,1.7c8.9,3.5,18.1,5.7,27.8,5.7
	c5.2,0,10.4,0.3,15.7,0.3c3.1,0,6.1-0.2,9.2-0.6c0.9-0.1,2.3-0.9,2.6-1.7c2.8-6.8,8.7-9.1,15.2-10c9.1-1.3,15.4,3.3,20.2,10.8
	c5.1,8.1,6.4,16.8,4.5,26.1c-0.6,2.9-0.9,5.8-1.9,8.5c-5.6,14.6-20.3,16.7-31.2,8.4c-1.5-1.1-2.9-2.3-4-3.8
	c-2.3-3.3-5.7-4.4-9.4-4.4c-7.6-0.1-15.2-0.3-22.8,0.4c-7.8,0.7-15.5,2.8-22.7,6.4c-2.6,1.3-3.6,3.3-3.9,6.2
	c-1.7,15.7-5.4,30.9-11,45.7c-0.7,1.9-0.6,3.2,1,4.6c4.1,3.7,8.6,6.9,14,8.5c4,1.2,8,2.7,12.1,3.8c1.3,0.3,2.9,0,4.1-0.5
	c4.8-1.7,9.6-2.9,14,0.5c2,1.6,3.7,3.8,4.8,6.1c3.8,7.7,2.2,20.8-4.3,26.6c-3.7,3.3-7.5,6.6-12.8,7.3c-4.4,0.7-8.1-0.6-11.2-3.6
	c-2-1.9-4-4-5.2-6.4c-2.3-4.6-6.4-7-10.5-9.3c-4.9-2.7-10.2-4.9-15.3-7.3c-3.1-1.4-4.3-1-6.1,2c-12.6,21.3-28.6,39.6-48,55
	c-1.2,1-1.5,1.9-1.3,3.5c1.1,7.6,5.2,13.6,9.8,19.5c2.8,3.5,5.2,7.2,7.7,10.9c0.6,0.8,1.2,1.6,1.8,2.4c2.5,3.1,5.3,5.3,9.6,5.8
	c3.3,0.4,6.6,1.8,9.7,3.3c7.4,3.5,10.2,10.3,6.9,17.8c-5.6,12.9-15.4,20.7-29.5,22.7c-2.2,0.3-4.6,0.2-6.8,0
	c-8.7-0.6-14.5-12.4-11.2-19.8c1.1-2.4,0.9-4.9-0.1-7.4c-2.3-6.1-5-11.8-8.9-17.1c-3-4-5.5-8.5-8.2-12.7c-2.3-3.6-5.7-6-9.6-7.5
	c-0.9-0.3-2.4,0.1-3.4,0.6c-14,7.2-28.5,13-43.8,16.4c-10.1,2.3-20.5,3.7-30.8,5.3c-1.7,0.3-2.1,1-2.1,2.3
	c-0.1,5.4-0.5,10.7-0.2,16.1c0.3,5.5,1.4,10.9,2,16.4c0.2,1.6,1,2.4,2.3,3.1c4.3,2.1,7.5,5.3,9.9,9.3c4.1,6.8,3.1,13.5-0.4,20.1
	c-0.9,1.6-2,3.1-3.1,4.6c-4.3,6.5-11.2,9-18.3,10.5c-10,2.2-19.8,1.1-29-3.8c-2.8-1.5-5.8-2.7-8-4.8c-4.9-4.7-8.2-10.4-6.6-17.7
	c0.9-4.2,3.5-7.4,6.4-10.5c1.8-1.9,3.8-3.6,5.4-5.7c0.9-1.1,1.3-2.7,1.4-4.1c0.5-5.4,1.1-10.8,1.3-16.3
	C277.3,514.8,277.1,508.4,277.1,502.1z M296.6,113.5c0-0.2,0-0.4-0.1-0.6c-10.9,1.1-21.9,1.7-32.7,3.5c-38.2,6.5-71.8,23-99.5,50.2
	c-42.3,41.3-61.4,91.7-57.1,150.8c1.6,22.5,7.3,44.1,17.4,64.2c29.9,59.5,77.9,94.7,143.6,105.6c22.4,3.7,44.9,3.1,67-1.8
	c59.7-13.2,103.8-46.9,131.7-101.3c15.8-30.8,21.6-63.8,18.7-98.4c-1.9-22.6-7.7-44-17.5-64.4C436.7,155.4,369.9,113.5,296.6,113.5z
	"/>
</svg>
