<svg id="Layer_1" data-name="Layer 1" xmlns="http://www.w3.org/2000/svg" viewBox="0 0 509 582"><defs><style>.cls-1{fill:#fff;}</style></defs><path class="cls-1" d="M0,0H509V582H0ZM44.09,514.36c2.44,3.11,5.39,5.16,9.8,4.85L43.37,529c2.54.5,4.19.88,5.85,1.16A119.84,119.84,0,0,0,61.36,532,13.79,13.79,0,0,0,68,530.52c2-1,4-4.33,5.19-4,3.71,1,8.75,1.6,9.48,6.53.67,4.53,2.39,4.06,6,3.37,4.38-.82,10.27-4.43,12,2.48,1.7,0,3.2-.38,3.5.06a23.32,23.32,0,0,1,2,4.43l5.5,2.11-.19-1.27c2.85,0,5.8-.45,8.5.18,1.54.36,2.67,2.49,4,3.83l-.37,1.46,27-4.58c-1-3.13-1.07-5.37,3.08-4.73a3.69,3.69,0,0,0,2.87-.62c1.53-1.75,2.46-4.07,4.1-5.68,3.8-3.74,11-4.22,10.91-11.77,0-1,1.74-2.25,2.94-2.94,4.33-2.5,8.77-4.8,12.89-7-1.52-1.39-3.34-2.64-3.19-3,1-2.17,2-4.93,3.88-6,3.89-2.29,5.4-5.78,5.78-9.64a18.83,18.83,0,0,1,5-11.09c2.38-2.69,5.49-5.79,5.85-9,.8-7.34-.38-14.93,3.32-21.83,1.21-2.25,2.18-4.86,4-6.51,2.09-1.9,4.95-3,7.53-4.31,4-2.07,8.12-4.06,12.19-6.08l15.9-7.87c1-2.26,2.68-5.6,4.12-5.5,3,.2,5.9,2.21,9.51,3.77l.79-.52,5.63,6.07c.28-3.22.48-5.42.68-7.62l1.09-.53,3.3,5,1.29-.36c-.38-2.09-.75-4.18-1-5.63l-16.07-1.28,4.09-3.65c0-4.1,0-7.53,0-11,.06-5,3.63-10.81,8.26-11.55A18.68,18.68,0,0,0,284.6,381.2c3.25-9.89,10-16.37,17.35-22.74a16.83,16.83,0,0,0,3-4.13c1.36-2.22,2.39-4.67,3.91-6.76,3.11-4.27,9.39-7.51,4.13-14.17-1-1.22-2-2.4-3-3.6l-1.66.44,1.28-12.15-11.75.61c.76-3.12,4.82-7.14-1-9.45-.65.55-1.52,1.74-2,1.6-5.64-1.65-9.08,2.39-12.26,5.43s-5.68,4.3-9.84,2c-.68-6.83-1.37-13.79-2.07-20.77-7.26,2.78-13-1.43-12.29-9.52-3.91,2.24-7.59,4.28-11.18,6.45-1.17.71-2,2-3.18,2.63-2.52,1.41-3.21,3.16-3.33,6.24-.24,6.5,1.78,13.45-2.66,19.41a27,27,0,0,0-3.16,4.64c-3.45,7.45-8.79,12-16.73,11.93-1.12,2.78-2.09,5.36-3.19,7.89-.94,2.18-2.8,4.27-2.9,6.47-.44,9.8-5,17.63-11.28,24.58-4.52,5-8.25,11.13-15.18,13.55a51.66,51.66,0,0,0-7.24,2.75c-1.53.81-2.67,2.36-4,3.58-.69,1.64-1.49,3.79-3,4.66-3.78,2.16-13.8,8.36-15.75,11.31-2.49,3.76-6.2,4.68-10,6.18a110.51,110.51,0,0,0-15.17,7.92c-4,2.39-7.71,5.37-11.69,7.88a4.2,4.2,0,0,1-3.37,0c-4.17-1.83-8.17.5-10.38,2.56-5.06,4.73-8.89,10.76-15.25,14.21a7.5,7.5,0,0,0-2.69,2.89c-1.13,2-2.37,4.08,1,5.62,1.08.49,1.4,2.65,2.46,4.85-5.19-1.73-9.08-7.12-12.73-.66l2.37,2-6.71,7.6,1.24,3.7c-5.53,1.28-5.22-3.14-6.22-5.57L63,475.8c.85.53,1.69,1,2.47,1.52,1.94,1.33,4.88,2.27.05,4.22-2,.82-3.07,4-3.77,5l4.4,5.66-.79,1-7.1-1.09c.42,3.34,6.81,3.28,3.75,8.22a44.49,44.49,0,0,0-4.26-2.8,33.44,33.44,0,0,0-4.36-1.54c-.75,2-2.59,4.18-6-.24-.86,2.36-1.53,4.2-2.28,6.28l12.26-3.3.72,1.26L54.2,505.1l-4.31-1.91c-.31.61-.63,1.22-1,1.83l6.72,3.88c-.19,3-3.28,3.65-6.55,4.25-1.66.31-3.26.88-4.91,1.31-8.37-1.11-8.74-.85-7.79,6.68ZM359.2,142.76l-.46,1.27c-1.56-1.38-4.6-2.95-4.44-4.09,1.05-7.7-2-9.93-9.24-8.45-2.08.43-4.42-.45-7.83-.88l6.08,6.39,0,1.86c-7.41-4-6.57,1.65-7.77,4.87l4,1c-2.13,2.31-3.8,4.12-5.17,5.59,1.78,4.94,3.46,9.58,5.09,14.11l4-1.59c-.31,2.08-.52,3.48-.75,5-1.41.13-3.1-.19-3.91.5a4,4,0,0,0-.7,3.6c1.23,3.2,2.89,6.24,4.62,9.83l-8.75,1c-.64,6.69-1.09,13.74-2.08,20.71-.45,3.16-1.3,6.71-3.2,9.11a17.12,17.12,0,0,1-12,6.91c-5.51.68-10.61,4.72-15.85,7.37-.45.23-.59,1.11-.83,1.71-2.11,5.42,2.41,11.45,8.54,12.64,5,1,10.5,1.2,13.76,6.43,2.62,4.2,6.29,7,11.74,6.51a8.84,8.84,0,0,1,4,1c7.91,3.45,12.69,9.6,14.7,17.63l4.66-2.86c.25,1.84.13,3.29-.5,3.56-5.21,2.22-4.4,7.18-5.39,11.32-1.14,4.77-2.49,9.28-5.75,13.33-2.86,3.55-4.51,8.08-7,12.72l-3.81,2-.69,1.53c11.89-2.75,4,5.56,6.31,7.39a26.05,26.05,0,0,1,10,.82c.86.29.64,3.65,1,5.57.18.9.4,2.05,1,2.5.45.33,1.71-.14,2.42-.56,4.84-2.91,10-5.48,14.36-9a61.64,61.64,0,0,0,11.59-11.85c5.45-7.52,10.09-15.62,15.16-23.42,2.11-3.24,4.58-6.25,6.69-9.49,1.05-1.61,1.25-4.55,2.55-5.08,3.57-1.42,4.65-4.17,5.74-7.29,1.74-5,3.63-9.95,5.65-15.43a8.66,8.66,0,0,0-1.72-.36c-1.09-.11-2.2-.05-3.3-.07a32.39,32.39,0,0,0,.25-3.53c-.06-1.61-.33-3.22-.46-4.83s-.87-3.65-.19-4.82c1.86-3.14,3.75-6.88,6.68-8.65,6.55-4,13.54-7.7,21.76-6.23a64.25,64.25,0,0,1,6.95,2.06c1-6.73,1.88-13,2.92-20.16l4.31,3c6.19-4.74,9.65-10.35,8.24-18.24a12.71,12.71,0,0,1,.39-6.43c2.29-6.07,5-12,7.61-18-3.14-1.47-7-3.49-11-5.05-1.61-.63-4.56-1.05-5.27-.2-3.73,4.44-11.81,3-13.4,10.48-.46,2.14-3.25,4.41-5.51,5.41-4.79,2.12-9.93,3.48-15,5.05a1.92,1.92,0,0,1-1.73-.58c-1.83-4.25-6.23-3.81-9.54-5.32-2.24-1-4.52-2-6.75-3-4.86-2.28-9.13-6.71-14.22-4.38-1.9-1.17-3.13-1.86-4.27-2.65-2.09-1.45-4.51-2.66-6-4.57-.84-1,.17-3.37-.16-5-1.1-5.45-2.69-10.82-3.57-16.3-.53-3.35-.09-6.86-.09-9.39l-6.45.5-.24-1.63,4.44-4.22-.61-.79L365.65,124c-1.09-1.92-2.15-3.77-3.68-6.43,1,9.43,1.23,18,6.07,26.5Zm-68.79-86.2,5.45,2.11A37.56,37.56,0,0,1,292.37,64a68.51,68.51,0,0,1-5.85,5.17l14.71,20.08,2.41-6.33,1.49-.19c.57,2.2.81,4.55,1.77,6.56a62.39,62.39,0,0,0,4.5,7c.14-.57.28-1.15.43-1.72l6.65-2.14.52,4.11c1.12-1.22,1.83-2.55,2.91-3,.75-.31,2,.61,3.31,1.08-.5,1.15-.9,2.1-1.29,3l2,.7c-.34,5-1.44,9.34-.68,13.29s-.54,5.82-3.79,6.83l5.44,14c5.4-3.37,1.51-7.64,2.38-11.63l5.6.91c-4.25-9.86-4-16,.21-19.67L322.13,83.86l1-.69-3.9-.44v-7l6.34,2.94.6-.93-4.07-5.69h3.71l-7.7-12.78L312.21,63l-2.92-6.31H306c1.2-4.58,1.2-4.58-4.09-9.47l-2.62,4.41-3.44-2.53L298,46c-3.4,0-7.05,1.06-9.38-.24-3.87-2.16-6.11,3.53-8.91,1l-2.76,9.41c1.49.34,4.62.16,5.49,1.47,1.07,1.62.26,4.49.26,6.4,1.79-.94,3.43-1.44,4.54-2.5S289,58.79,290.41,56.56ZM93.69,557.78c-1.66-3.57-5.13-6.16-11.29-4.92,2.88,4.75,2.26,9.46-.47,14.08-4.11.46-4.11.46-3.2,4.59L96.92,568c-2.46-4.68-5.06-6.05-9.08-2.65l-.36-1.56Z"/><path d="M44.22,514.48c1.63-.45,3.23-1,4.89-1.33,3.27-.6,6.36-1.29,6.55-4.25L48.94,505c.32-.61.64-1.22,1-1.83l4.31,1.91,3.87-5.16-.72-1.26L45.09,502c.75-2.08,1.42-3.92,2.28-6.28,3.42,4.42,5.26,2.24,6,.24a33.44,33.44,0,0,1,4.36,1.54,44.49,44.49,0,0,1,4.26,2.8c3.06-4.94-3.33-4.88-3.75-8.22l7.1,1.09.79-1-4.4-5.66c.7-1,1.76-4.14,3.77-5,4.83-2,1.89-2.89-.05-4.22-.78-.53-1.62-1-2.47-1.52l5.52-2.56c1,2.43.69,6.85,6.22,5.57l-1.24-3.7,6.71-7.6-2.37-2c3.65-6.46,7.54-1.07,12.73.66-1.06-2.2-1.38-4.36-2.46-4.85-3.42-1.54-2.18-3.6-1-5.62a7.5,7.5,0,0,1,2.69-2.89c6.36-3.45,10.19-9.48,15.25-14.21,2.21-2.06,6.21-4.39,10.38-2.56a4.2,4.2,0,0,0,3.37,0c4-2.51,7.66-5.49,11.69-7.88a110.51,110.51,0,0,1,15.17-7.92c3.81-1.5,7.52-2.42,10-6.18,1.95-2.95,12-9.15,15.75-11.31,1.53-.87,2.33-3,3-4.66,1.32-1.22,2.46-2.77,4-3.58a51.66,51.66,0,0,1,7.24-2.75c6.93-2.42,10.66-8.5,15.18-13.55,6.23-7,10.84-14.78,11.28-24.58.1-2.2,2-4.29,2.9-6.47,1.1-2.53,2.07-5.11,3.19-7.89,7.94.09,13.28-4.48,16.73-11.93a27,27,0,0,1,3.16-4.64c4.44-6,2.42-12.91,2.66-19.41.12-3.08.81-4.83,3.33-6.24,1.18-.66,2-1.92,3.18-2.63,3.59-2.17,7.27-4.21,11.18-6.45-.68,8.09,5,12.3,12.29,9.52.7,7,1.39,13.94,2.07,20.77,4.16,2.31,6.72,1,9.84-2s6.62-7.08,12.26-5.43c.48.14,1.35-1.05,2-1.6,5.81,2.31,1.75,6.33,1,9.45l11.75-.61-1.28,12.15,1.66-.44c1,1.2,2,2.38,3,3.6,5.26,6.66-1,9.9-4.13,14.17-1.52,2.09-2.55,4.54-3.91,6.76a16.83,16.83,0,0,1-3,4.13c-7.38,6.37-14.1,12.85-17.35,22.74a18.68,18.68,0,0,1-15.39,13.09c-4.63.74-8.2,6.55-8.26,11.55,0,3.42,0,6.85,0,11l-4.09,3.65,16.07,1.28c.26,1.45.63,3.54,1,5.63l-1.29.36-3.3-5-1.09.53c-.2,2.2-.4,4.4-.68,7.62l-5.63-6.07-.79.52c-3.61-1.56-6.5-3.57-9.51-3.77-1.44-.1-3.11,3.24-4.12,5.5l-15.9,7.87c-4.07,2-8.15,4-12.19,6.08-2.58,1.33-5.44,2.41-7.53,4.31-1.8,1.65-2.77,4.26-4,6.51-3.7,6.9-2.52,14.49-3.32,21.83-.36,3.19-3.47,6.29-5.85,9a18.83,18.83,0,0,0-5,11.09c-.38,3.86-1.89,7.35-5.78,9.64-1.87,1.1-2.86,3.86-3.88,6-.15.33,1.67,1.58,3.19,3-4.12,2.23-8.56,4.53-12.89,7-1.2.69-2.95,2-2.94,2.94.08,7.55-7.11,8-10.91,11.77-1.64,1.61-2.57,3.93-4.1,5.68a3.69,3.69,0,0,1-2.87.62c-4.15-.64-4,1.6-3.08,4.73l-27,4.58.37-1.46c-1.31-1.34-2.44-3.47-4-3.83-2.7-.63-5.65-.18-8.5-.18l.19,1.27-5.5-2.11a23.32,23.32,0,0,0-2-4.43c-.3-.44-1.8-.06-3.5-.06-1.73-6.91-7.62-3.3-12-2.48-3.64.69-5.36,1.16-6-3.37-.73-4.93-5.77-5.49-9.48-6.53-1.23-.35-3.21,3-5.19,4A13.79,13.79,0,0,1,61.36,532a119.84,119.84,0,0,1-12.14-1.85c-1.66-.28-3.31-.66-5.85-1.16l10.52-9.76c-4.41.31-7.36-1.74-9.8-4.85Z"/><path d="M359.2,142.76,368,144c-4.84-8.52-5-17.07-6.07-26.5,1.53,2.66,2.59,4.51,3.68,6.43l5.11-3.39.61.79-4.44,4.22.24,1.63,6.45-.5c0,2.53-.44,6,.09,9.39.88,5.48,2.47,10.85,3.57,16.3.33,1.64-.68,4,.16,5,1.53,1.91,3.95,3.12,6,4.57,1.14.79,2.37,1.48,4.27,2.65,5.09-2.33,9.36,2.1,14.22,4.38,2.23,1,4.51,2,6.75,3,3.31,1.51,7.71,1.07,9.54,5.32A1.92,1.92,0,0,0,420,178c5-1.57,10.18-2.93,15-5.05,2.26-1,5.05-3.27,5.51-5.41,1.59-7.48,9.67-6,13.4-10.48.71-.85,3.66-.43,5.27.2,4,1.56,7.86,3.58,11,5.05-2.6,6.06-5.32,12-7.61,18a12.71,12.71,0,0,0-.39,6.43c1.41,7.89-2.05,13.5-8.24,18.24l-4.31-3c-1,7.2-1.95,13.43-2.92,20.16a64.25,64.25,0,0,0-6.95-2.06c-8.22-1.47-15.21,2.26-21.76,6.23-2.93,1.77-4.82,5.51-6.68,8.65-.68,1.17.06,3.19.19,4.82s.4,3.22.46,4.83a32.39,32.39,0,0,1-.25,3.53c1.1,0,2.21,0,3.3.07a8.66,8.66,0,0,1,1.72.36c-2,5.48-3.91,10.43-5.65,15.43-1.09,3.12-2.17,5.87-5.74,7.29-1.3.53-1.5,3.47-2.55,5.08-2.11,3.24-4.58,6.25-6.69,9.49-5.07,7.8-9.71,15.9-15.16,23.42a61.64,61.64,0,0,1-11.59,11.85c-4.39,3.49-9.52,6.06-14.36,9-.71.42-2,.89-2.42.56-.63-.45-.85-1.6-1-2.5-.39-1.92-.17-5.28-1-5.57a26.05,26.05,0,0,0-10-.82c-2.3-1.83,5.58-10.14-6.31-7.39l.69-1.53,3.81-2c2.48-4.64,4.13-9.17,7-12.72,3.26-4.05,4.61-8.56,5.75-13.33,1-4.14.18-9.1,5.39-11.32.63-.27.75-1.72.5-3.56l-4.66,2.86c-2-8-6.79-14.18-14.7-17.63a8.84,8.84,0,0,0-4-1c-5.45.47-9.12-2.31-11.74-6.51-3.26-5.23-8.8-5.46-13.76-6.43C302.38,240,297.86,234,300,228.54c.24-.6.38-1.48.83-1.71,5.24-2.65,10.34-6.69,15.85-7.37a17.12,17.12,0,0,0,12-6.91c1.9-2.4,2.75-6,3.2-9.11,1-7,1.44-14,2.08-20.71l8.75-1c-1.73-3.59-3.39-6.63-4.62-9.83a4,4,0,0,1,.7-3.6c.81-.69,2.5-.37,3.91-.5.23-1.52.44-2.92.75-5l-4,1.59c-1.63-4.53-3.31-9.17-5.09-14.11,1.37-1.47,3-3.28,5.17-5.59l-4-1c1.2-3.22.36-8.83,7.77-4.87l0-1.86-6.08-6.39c3.41.43,5.75,1.31,7.83.88,7.25-1.48,10.29.75,9.24,8.45-.16,1.14,2.88,2.71,4.44,4.09Z"/><path d="M290.41,56.56c-1.39,2.23-2,3.86-3.2,5s-2.75,1.56-4.54,2.5c0-1.91.81-4.78-.26-6.4-.87-1.31-4-1.13-5.49-1.47l2.76-9.41c2.8,2.52,5-3.17,8.91-1,2.33,1.3,6,.24,9.38.24l-2.11,3.09,3.44,2.53,2.62-4.41c5.29,4.89,5.29,4.89,4.09,9.47h3.28L312.21,63l5.89-3.65,7.7,12.78h-3.71l4.07,5.69-.6.93-6.34-2.94v7l3.9.44-1,.69,12.95,18.27c-4.23,3.63-4.46,9.81-.21,19.67l-5.6-.91c-.87,4,3,8.26-2.38,11.63l-5.44-14c3.25-1,4.56-2.78,3.79-6.83s.34-8.26.68-13.29l-2-.7c.39-.9.79-1.85,1.29-3-1.3-.47-2.56-1.39-3.31-1.08-1.08.44-1.79,1.77-2.91,3l-.52-4.11-6.65,2.14c-.15.57-.29,1.15-.43,1.72a62.39,62.39,0,0,1-4.5-7c-1-2-1.2-4.36-1.77-6.56l-1.49.19-2.41,6.33L286.52,69.19A68.51,68.51,0,0,0,292.37,64a37.56,37.56,0,0,0,3.49-5.35Z"/><path d="M93.69,557.78l-6.21,6,.36,1.56c4-3.4,6.62-2,9.08,2.65l-18.19,3.56c-.91-4.13-.91-4.13,3.2-4.59,2.73-4.62,3.35-9.33.47-14.08C88.56,551.62,92,554.21,93.69,557.78Z"/><path d="M44.09,514.36l-7.68,6.78c-.95-7.53-.58-7.79,7.8-6.67Z"/></svg>