<?xml version="1.0" encoding="utf-8"?>
<!-- Generator: Adobe Illustrator 24.3.0, SVG Export Plug-In . SVG Version: 6.00 Build 0)  -->
<svg version="1.1" id="Layer_1" xmlns="http://www.w3.org/2000/svg" xmlns:xlink="http://www.w3.org/1999/xlink" x="0px" y="0px"
	 viewBox="0 0 595.28 595.28" style="enable-background:new 0 0 595.28 595.28;" xml:space="preserve">
<style type="text/css">
	.st0{fill:#79D73A;}
</style>
<path class="st0" d="M280.54,474.88c-5.82-0.91-11.22-1.62-16.57-2.62c-17.99-3.35-35.01-9.45-51.03-18.3
	c-1.89-1.05-3.29-1.09-5.24-0.1c-5.4,2.73-9.88,6.33-13.32,11.38c-2.37,3.47-5.36,6.5-7.93,9.83c-1.68,2.18-3.45,4.42-4.5,6.92
	c-0.66,1.58,0.04,3.69-0.05,5.56c-0.13,2.87-0.1,5.81-0.7,8.59c-1.56,7.3-6.9,10.71-14.65,9.1c-5.93-1.23-11.49-3.39-16-7.9
	c-3.75-3.75-6.88-7.76-8.69-12.76c-3.46-9.53,3.78-17.95,12.23-17.75c3.15,0.07,5.69-0.72,8.21-2.59c4.22-3.12,7.89-6.71,11.16-10.8
	c2.71-3.39,5.96-6.34,8.62-9.76c1.48-1.91,2.35-4.34,3.25-6.64c0.23-0.59-0.24-1.83-0.79-2.3c-11.98-10.14-22.53-21.59-31.44-34.52
	c-0.69-1.01-1.43-1.35-2.64-1.12c-5.19,1-9.98,2.79-13.95,6.44c-2.32,2.13-4.79,4.09-7.11,6.22c-0.53,0.49-0.76,1.33-1.04,2.05
	c-0.78,2.07-1.44,4.18-2.28,6.23c-0.96,2.34-3.04,3.14-5.35,3.52c-6.26,1.03-11.11-1.58-15.34-5.87c-4.49-4.56-5.19-10.18-4.3-16.11
	c0.7-4.64,3.83-7.19,8.23-8.26c1.27-0.31,2.63-0.58,3.91-0.46c4.96,0.44,9.11-1.54,13.1-4.09c3.03-1.93,6.14-3.78,9-5.95
	c1.59-1.21,2.8-2.94,4.01-4.57c0.3-0.4,0.08-1.39-0.2-1.98c-6.31-13.33-10.85-27.22-13.59-41.71c-0.06-0.32-0.19-0.65-0.18-0.97
	c0.16-4.37-2.68-6.27-6.24-7.52c-6.41-2.26-13.06-2.39-19.71-1.91c-4.77,0.34-9.5,1.21-14.26,1.73c-1.51,0.17-2.34,0.89-2.96,2.19
	c-1.41,2.98-3.55,5.37-6.26,7.24c-6.54,4.51-13.72,4.38-20.17-0.34c-0.85-0.62-1.76-1.16-2.66-1.7c-4.71-2.85-6.6-7.68-8.13-12.47
	c-3.1-9.69-2.22-19.22,2.45-28.3c1.2-2.32,2.3-4.86,4.07-6.69c3.92-4.03,8.63-6.86,14.6-5.64c2.06,0.42,4.14,1.42,5.86,2.66
	c2.44,1.76,4.6,3.92,6.78,6.02c1.73,1.66,3.3,3.09,6.1,2.9c2.85-0.2,5.75,0.62,8.64,0.7c6.9,0.19,13.8,0.28,20.7,0.26
	c1.4,0,2.82-0.59,4.19-1.06c3.09-1.07,4.83-2.86,5.18-6.54c1.67-17.47,6.04-34.3,13.13-50.37c0.99-2.24,0.92-3.86-0.47-5.89
	c-4.01-5.88-8.87-10.52-15.92-12.52c-2.71-0.77-5.33-1.87-8.04-2.66c-0.82-0.24-1.8-0.02-2.69,0.14c-2.17,0.38-4.32,0.9-6.5,1.25
	c-2.09,0.33-3.76-0.7-5.08-2.12c-1.11-1.19-2.13-2.56-2.83-4.01c-2.86-5.91-1.47-15.69,3.46-20c2.1-1.84,4.47-3.54,7-4.67
	c4.68-2.1,9.1-0.83,12.43,3.07c0.77,0.9,1.61,1.8,2.11,2.85c2.13,4.42,5.95,6.9,10.1,8.99c3.21,1.62,6.41,3.29,9.73,4.66
	c1.66,0.69,3.6,0.69,5.39,1.1c1.58,0.36,3.18,0.74,4.67,1.36c1.55,0.64,2.3-0.14,3.11-1.2c3.47-4.55,6.83-9.2,10.5-13.6
	c7.7-9.24,16.4-17.47,25.94-24.8c1.28-0.98,1.69-1.98,1.67-3.64c-0.07-6.46-2.1-12.24-5.31-17.75c-2.29-3.92-4.24-8.04-6.51-11.97
	c-1.28-2.21-2.82-4.28-4.39-6.3c-0.46-0.6-1.39-0.93-2.18-1.16c-5.17-1.52-10.12-3.46-13.69-7.76c-3.04-3.67-3.26-7.91-1.15-12.16
	c2.23-4.49,5.58-8.16,9.47-10.94c6.33-4.53,13.62-6.91,21.58-6.04c9.79,1.07,13.78,11.68,10.23,18.44
	c-1.15,2.19-1.36,4.42-0.76,6.87c1.32,5.4,3.19,10.54,5.97,15.4c2.12,3.71,3.71,7.7,5.64,11.52c1.39,2.74,3.38,4.96,6.06,6.59
	c1.14,0.69,2,0.86,3.24,0.24c13.78-6.9,28.28-11.73,43.39-14.72c3.61-0.72,7.26-1.27,10.91-1.74c1.94-0.25,3.46-0.99,4.76-2.45
	c3.62-4.03,5.76-8.58,5.51-14.13c-0.25-5.65-0.21-11.31-0.64-16.95c-0.25-3.23-1.57-6.11-4.04-8.53
	c-4.45-4.36-5.54-10.14-5.98-16.07c-0.09-1.24,0.01-2.5-0.02-3.75c-0.08-3.06,1.03-5.66,3.04-7.91c2.7-3.03,6.06-4.99,9.98-6
	c3.3-0.85,6.56-1.94,9.91-2.53c7.94-1.4,15.16,0.7,21.62,5.34c1.2,0.87,2.19,2.29,2.81,3.67c2.57,5.74,2.91,11.88,2.42,18.01
	c-0.34,4.23-2.74,7.65-5.76,10.53c-3.11,2.96-4.33,6.65-4.62,10.77c-0.54,7.69,0.36,15.28,2.09,22.72c0.56,2.43,2.52,4.55,3.94,6.75
	c0.22,0.34,0.95,0.41,1.46,0.47c16.16,2.05,31.68,6.41,46.63,12.84c1.36,0.58,2.56,0.68,3.71-0.15c4.8-3.44,9.7-6.7,12.44-12.34
	c2.56-5.26,5.54-10.32,8.33-15.47c0.31-0.58,0.58-1.18,0.91-1.75c2.07-3.61,1.66-7.18,0.57-11.11c-1.38-4.98-1.65-10.18,1.45-14.86
	c1.82-2.75,4.43-4.26,7.73-4.51c11.28-0.84,20.6,3.11,27.99,11.62c1.2,1.38,2.28,2.92,3.16,4.52c4.92,9.02-1.3,18.02-9.22,19.23
	c-2.9,0.45-5.13,1.56-7.13,3.7c-3.61,3.88-6.7,8.06-9.19,12.77c-2,3.77-4.43,7.32-6.66,10.96c-2.21,3.6-2.58,7.58-2.01,11.62
	c0.38,2.71,1.61,5.03,3.96,6.8c13.95,10.48,26.04,22.8,36.21,36.99c1,1.39,2.05,1.94,3.76,1.89c5.52-0.15,10.72-1.1,15.13-4.76
	c1.16-0.96,2.54-1.65,3.77-2.54c1.61-1.16,2.87-2.43,3.36-4.61c1.17-5.22,5.67-7.7,10.89-6.07c5.94,1.86,11.39,7.8,10.89,14.16
	c-0.09,1.11,0.09,2.26-0.11,3.34c-1.09,5.73-4.62,8.32-11.29,7.85c-2.74-0.2-5.24,0.14-7.66,1.21c-5.34,2.36-10.71,4.68-14.59,9.37
	c-0.72,0.88-0.93,1.5-0.38,2.57c8.38,16.42,14.01,33.73,16.82,51.95c0.09,0.56,0.68,1.28,1.21,1.48c7.66,2.98,15.56,4.85,23.84,4.87
	c4.48,0.01,8.95,0.25,13.43,0.24c2.63-0.01,5.26-0.2,7.87-0.52c0.81-0.1,1.94-0.74,2.22-1.43c2.41-5.85,7.48-7.84,13.02-8.6
	c7.84-1.08,13.21,2.83,17.29,9.3c4.41,6.99,5.45,14.41,3.89,22.35c-0.48,2.45-0.75,4.99-1.63,7.29
	c-4.77,12.54-17.44,14.33-26.74,7.22c-1.25-0.95-2.52-2-3.4-3.28c-1.99-2.87-4.9-3.75-8.03-3.78c-6.51-0.06-13.07-0.24-19.53,0.37
	c-6.73,0.64-13.32,2.38-19.45,5.49c-2.2,1.12-3.05,2.79-3.32,5.28c-1.44,13.47-4.67,26.54-9.43,39.22
	c-0.62,1.64-0.53,2.74,0.83,3.97c3.56,3.2,7.35,5.92,12.03,7.27c3.47,1,6.85,2.31,10.34,3.24c1.08,0.29,2.45-0.03,3.56-0.43
	c4.09-1.44,8.23-2.52,11.98,0.46c1.7,1.34,3.15,3.26,4.12,5.21c3.28,6.62,1.88,17.86-3.73,22.79c-3.19,2.81-6.42,5.63-10.95,6.3
	c-3.78,0.56-6.95-0.55-9.59-3.06c-1.7-1.62-3.39-3.44-4.44-5.5c-2.01-3.92-5.53-5.98-9.05-7.94c-4.22-2.35-8.71-4.24-13.1-6.28
	c-2.66-1.24-3.68-0.87-5.21,1.7c-10.85,18.26-24.58,34.01-41.19,47.23c-1.06,0.84-1.29,1.6-1.08,2.98
	c0.97,6.52,4.43,11.69,8.4,16.69c2.37,2.99,4.43,6.22,6.63,9.33c0.49,0.7,0.99,1.39,1.52,2.07c2.12,2.69,4.58,4.51,8.26,4.95
	c2.86,0.34,5.7,1.57,8.35,2.82c6.38,3,8.75,8.83,5.94,15.23c-4.84,11.03-13.19,17.79-25.28,19.49c-1.91,0.27-3.91,0.14-5.85-0.01
	c-7.5-0.55-12.48-10.63-9.63-17.02c0.92-2.06,0.74-4.17-0.06-6.33c-1.94-5.21-4.29-10.14-7.64-14.64
	c-2.59-3.47-4.75-7.27-7.07-10.93c-1.99-3.13-4.88-5.15-8.25-6.44c-0.8-0.3-2.05,0.05-2.9,0.49c-11.99,6.15-24.45,11.14-37.58,14.11
	c-8.7,1.97-17.58,3.17-26.41,4.56c-1.45,0.23-1.78,0.89-1.8,1.99c-0.1,4.6-0.41,9.21-0.14,13.79c0.28,4.71,1.18,9.38,1.74,14.08
	c0.16,1.35,0.84,2.09,2.01,2.65c3.67,1.76,6.42,4.51,8.51,7.99c3.53,5.85,2.66,11.58-0.36,17.25c-0.74,1.39-1.74,2.63-2.62,3.94
	c-3.73,5.61-9.64,7.68-15.69,9c-8.58,1.87-17.01,0.93-24.89-3.24c-2.37-1.25-4.98-2.35-6.87-4.16c-4.23-4.05-7.03-8.95-5.68-15.15
	c0.78-3.57,3.04-6.38,5.49-9c1.53-1.63,3.27-3.1,4.63-4.85c0.73-0.94,1.09-2.32,1.21-3.54c0.47-4.65,0.94-9.3,1.09-13.97
	C280.68,485.83,280.54,480.32,280.54,474.88z M297.29,141.47c-0.02-0.18-0.04-0.36-0.06-0.54c-9.35,0.97-18.79,1.42-28.03,3
	c-32.81,5.6-61.58,19.76-85.4,43.03c-36.27,35.43-52.66,78.68-49,129.35c1.39,19.31,6.25,37.81,14.94,55.07
	c25.68,51.02,66.86,81.27,123.22,90.59c19.21,3.18,38.49,2.62,57.5-1.58c51.18-11.31,89.07-40.27,112.96-86.91
	c13.54-26.43,18.49-54.78,16.03-84.41c-1.61-19.35-6.63-37.78-15-55.28C417.51,177.47,360.15,141.51,297.29,141.47z"/>
</svg>
